<svg xmlns="http://www.w3.org/2000/svg" xmlns:xlink="http://www.w3.org/1999/xlink" width="500" zoomAndPan="magnify" viewBox="0 0 375 374.999991" height="500" preserveAspectRatio="xMidYMid meet" version="1.0"><defs><g/><clipPath id="974eb1ec46"><rect x="0" width="343" y="0" height="174"/></clipPath><clipPath id="604874b70a"><path d="M 24.492188 152.019531 L 94.550781 152.019531 L 94.550781 193.0625 L 24.492188 193.0625 Z M 24.492188 152.019531 " clip-rule="nonzero"/></clipPath><clipPath id="e656226f9a"><path d="M 31.242188 152.019531 L 87.761719 152.019531 C 91.492188 152.019531 94.511719 155.042969 94.511719 158.769531 L 94.511719 186.3125 C 94.511719 190.039062 91.492188 193.0625 87.761719 193.0625 L 31.242188 193.0625 C 27.515625 193.0625 24.492188 190.039062 24.492188 186.3125 L 24.492188 158.769531 C 24.492188 155.042969 27.515625 152.019531 31.242188 152.019531 Z M 31.242188 152.019531 " clip-rule="nonzero"/></clipPath><clipPath id="818ccb9893"><path d="M 0.492188 0.0195312 L 70.550781 0.0195312 L 70.550781 41.0625 L 0.492188 41.0625 Z M 0.492188 0.0195312 " clip-rule="nonzero"/></clipPath><clipPath id="96b28e1d0a"><path d="M 7.242188 0.0195312 L 63.761719 0.0195312 C 67.492188 0.0195312 70.511719 3.042969 70.511719 6.769531 L 70.511719 34.3125 C 70.511719 38.039062 67.492188 41.0625 63.761719 41.0625 L 7.242188 41.0625 C 3.515625 41.0625 0.492188 38.039062 0.492188 34.3125 L 0.492188 6.769531 C 0.492188 3.042969 3.515625 0.0195312 7.242188 0.0195312 Z M 7.242188 0.0195312 " clip-rule="nonzero"/></clipPath><clipPath id="1a519f0002"><rect x="0" width="71" y="0" height="42"/></clipPath><clipPath id="bccef6e842"><path d="M 2 15 L 26 15 L 26 39 L 2 39 Z M 2 15 " clip-rule="nonzero"/></clipPath><clipPath id="e77ac9e2f8"><path d="M 0.910156 22.960938 L 10.046875 13.824219 L 27.109375 30.882812 L 17.972656 40.019531 Z M 0.910156 22.960938 " clip-rule="nonzero"/></clipPath><clipPath id="e0a7b417d8"><path d="M 3.03125 20.839844 L 7.925781 15.945312 C 8.488281 15.382812 9.25 15.066406 10.046875 15.066406 C 10.84375 15.066406 11.605469 15.382812 12.167969 15.945312 L 24.980469 28.757812 C 25.542969 29.320312 25.859375 30.082031 25.859375 30.878906 C 25.859375 31.671875 25.542969 32.4375 24.980469 33 L 20.085938 37.894531 C 19.523438 38.457031 18.761719 38.773438 17.964844 38.773438 C 17.167969 38.773438 16.40625 38.457031 15.84375 37.894531 L 3.03125 25.082031 C 2.46875 24.519531 2.152344 23.753906 2.152344 22.960938 C 2.152344 22.164062 2.46875 21.402344 3.03125 20.839844 Z M 3.03125 20.839844 " clip-rule="nonzero"/></clipPath><clipPath id="0faac26cd2"><path d="M 0.121094 0 L 23.878906 0 L 23.878906 23.878906 L 0.121094 23.878906 Z M 0.121094 0 " clip-rule="nonzero"/></clipPath><clipPath id="6caacfd460"><path d="M -1.089844 7.960938 L 8.046875 -1.175781 L 25.109375 15.882812 L 15.972656 25.019531 Z M -1.089844 7.960938 " clip-rule="nonzero"/></clipPath><clipPath id="a421982cd3"><path d="M 1.03125 5.839844 L 5.925781 0.945312 C 6.488281 0.382812 7.25 0.0664062 8.046875 0.0664062 C 8.84375 0.0664062 9.605469 0.382812 10.167969 0.945312 L 22.980469 13.757812 C 23.542969 14.320312 23.859375 15.082031 23.859375 15.878906 C 23.859375 16.671875 23.542969 17.4375 22.980469 18 L 18.085938 22.894531 C 17.523438 23.457031 16.761719 23.773438 15.964844 23.773438 C 15.167969 23.773438 14.40625 23.457031 13.84375 22.894531 L 1.03125 10.082031 C 0.46875 9.519531 0.152344 8.753906 0.152344 7.960938 C 0.152344 7.164062 0.46875 6.402344 1.03125 5.839844 Z M 1.03125 5.839844 " clip-rule="nonzero"/></clipPath><clipPath id="c8cbedab62"><rect x="0" width="24" y="0" height="24"/></clipPath><clipPath id="507a5a2697"><path d="M 13 1 L 55 1 L 55 42 L 13 42 Z M 13 1 " clip-rule="nonzero"/></clipPath><clipPath id="454535938c"><path d="M 47.234375 0.351562 L 56.097656 9.757812 L 20.71875 43.089844 L 11.855469 33.6875 Z M 47.234375 0.351562 " clip-rule="nonzero"/></clipPath><clipPath id="f971501504"><path d="M 49.292969 2.535156 L 54.039062 7.574219 C 54.585938 8.152344 54.878906 8.925781 54.855469 9.722656 C 54.832031 10.515625 54.492188 11.269531 53.914062 11.816406 L 22.929688 41.003906 C 22.351562 41.550781 21.582031 41.84375 20.785156 41.820312 C 19.988281 41.796875 19.234375 41.457031 18.691406 40.878906 L 13.945312 35.839844 C 13.398438 35.261719 13.105469 34.488281 13.128906 33.695312 C 13.152344 32.898438 13.492188 32.144531 14.070312 31.601562 L 45.050781 2.410156 C 45.628906 1.863281 46.402344 1.570312 47.199219 1.59375 C 47.992188 1.617188 48.746094 1.957031 49.292969 2.535156 Z M 49.292969 2.535156 " clip-rule="nonzero"/></clipPath><clipPath id="833592651a"><path d="M 0 0.441406 L 41.921875 0.441406 L 41.921875 41 L 0 41 Z M 0 0.441406 " clip-rule="nonzero"/></clipPath><clipPath id="d330c78925"><path d="M 34.234375 -0.648438 L 43.097656 8.757812 L 7.71875 42.089844 L -1.144531 32.6875 Z M 34.234375 -0.648438 " clip-rule="nonzero"/></clipPath><clipPath id="9347eb9d7e"><path d="M 36.292969 1.535156 L 41.039062 6.574219 C 41.585938 7.152344 41.878906 7.925781 41.855469 8.722656 C 41.832031 9.515625 41.492188 10.269531 40.914062 10.816406 L 9.929688 40.003906 C 9.351562 40.550781 8.582031 40.84375 7.785156 40.820312 C 6.988281 40.796875 6.234375 40.457031 5.691406 39.878906 L 0.945312 34.839844 C 0.398438 34.261719 0.105469 33.488281 0.128906 32.695312 C 0.152344 31.898438 0.492188 31.144531 1.070312 30.601562 L 32.050781 1.410156 C 32.628906 0.863281 33.402344 0.570312 34.199219 0.59375 C 34.992188 0.617188 35.746094 0.957031 36.292969 1.535156 Z M 36.292969 1.535156 " clip-rule="nonzero"/></clipPath><clipPath id="543b9e90a4"><rect x="0" width="42" y="0" height="41"/></clipPath><clipPath id="14c59a9647"><rect x="0" width="57" y="0" height="44"/></clipPath></defs><rect x="-37.5" width="450" fill="#ffffff" y="-37.499999" height="449.999989" fill-opacity="1"/><rect x="-37.5" width="450" fill="#0500e2" y="-37.499999" height="449.999989" fill-opacity="1"/><g transform="matrix(1, 0, 0, 1, 16, 101)"><g clip-path="url(#974eb1ec46)"><g fill="#ffffff" fill-opacity="1"><g transform="translate(0.437713, 139.217864)"><g><path d="M 85.75 -17.6875 C 87.175781 -14.269531 87.890625 -11.796875 87.890625 -10.265625 C 87.890625 -6.648438 84.941406 -3.609375 79.046875 -1.140625 C 75.992188 0.191406 73.539062 0.859375 71.6875 0.859375 C 69.832031 0.859375 68.3125 0.40625 67.125 -0.5 C 65.9375 -1.40625 65.054688 -2.332031 64.484375 -3.28125 C 63.535156 -5.09375 59.828125 -13.703125 53.359375 -29.109375 L 48.9375 -28.8125 L 30.953125 -28.8125 L 30.953125 -12.703125 C 30.953125 -10.515625 30.878906 -8.875 30.734375 -7.78125 C 30.597656 -6.6875 30.148438 -5.425781 29.390625 -4 C 28.054688 -1.425781 24.347656 -0.140625 18.265625 -0.140625 C 11.609375 -0.140625 7.707031 -1.898438 6.5625 -5.421875 C 5.988281 -7.035156 5.703125 -9.507812 5.703125 -12.84375 L 5.703125 -92.015625 C 5.703125 -94.210938 5.773438 -95.859375 5.921875 -96.953125 C 6.066406 -98.046875 6.519531 -99.300781 7.28125 -100.71875 C 8.613281 -103.289062 12.320312 -104.578125 18.40625 -104.578125 L 49.21875 -104.578125 C 57.59375 -104.578125 65.726562 -101.535156 73.625 -95.453125 C 77.425781 -92.503906 80.5625 -88.507812 83.03125 -83.46875 C 85.507812 -78.425781 86.75 -72.8125 86.75 -66.625 C 86.75 -55.875 83.179688 -47.03125 76.046875 -40.09375 C 78.140625 -35.050781 81.375 -27.582031 85.75 -17.6875 Z M 30.953125 -54.078125 L 49.21875 -54.078125 C 51.976562 -54.078125 54.738281 -55.117188 57.5 -57.203125 C 60.257812 -59.296875 61.640625 -62.4375 61.640625 -66.625 C 61.640625 -70.8125 60.257812 -73.972656 57.5 -76.109375 C 54.738281 -78.253906 51.882812 -79.328125 48.9375 -79.328125 L 30.953125 -79.328125 Z M 30.953125 -54.078125 "/></g></g></g><g fill="#ffffff" fill-opacity="1"><g transform="translate(87.608958, 139.217864)"><g><path d="M 78.1875 -46.578125 C 78.1875 -40.734375 76.734375 -36.40625 73.828125 -33.59375 C 70.929688 -30.789062 67.722656 -29.390625 64.203125 -29.390625 L 30.390625 -29.390625 C 30.390625 -26.722656 31.957031 -24.484375 35.09375 -22.671875 C 38.238281 -20.867188 41.378906 -19.96875 44.515625 -19.96875 C 50.023438 -19.96875 54.351562 -20.539062 57.5 -21.6875 L 59.0625 -22.25 C 61.34375 -23.300781 63.242188 -23.828125 64.765625 -23.828125 C 67.816406 -23.828125 70.4375 -21.6875 72.625 -17.40625 C 73.851562 -14.832031 74.46875 -12.644531 74.46875 -10.84375 C 74.46875 -2.375 64.335938 1.859375 44.078125 1.859375 C 37.046875 1.859375 30.796875 0.644531 25.328125 -1.78125 C 19.859375 -4.207031 15.601562 -7.414062 12.5625 -11.40625 C 6.5625 -19.113281 3.5625 -27.722656 3.5625 -37.234375 C 3.5625 -49.222656 7.4375 -58.804688 15.1875 -65.984375 C 22.945312 -73.160156 32.628906 -76.75 44.234375 -76.75 C 57.453125 -76.75 67.148438 -72.09375 73.328125 -62.78125 C 76.566406 -57.832031 78.1875 -52.429688 78.1875 -46.578125 Z M 48.078125 -42.375 C 51.691406 -42.375 53.5 -43.894531 53.5 -46.9375 C 53.5 -49.125 52.664062 -50.882812 51 -52.21875 C 49.34375 -53.550781 46.96875 -54.21875 43.875 -54.21875 C 40.78125 -54.21875 37.710938 -52.957031 34.671875 -50.4375 C 31.628906 -47.914062 30.109375 -45.226562 30.109375 -42.375 Z M 48.078125 -42.375 "/></g></g></g><g fill="#ffffff" fill-opacity="1"><g transform="translate(165.078667, 139.217864)"><g><path d="M 81.46875 -73.46875 C 86.414062 -70.519531 88.890625 -67.382812 88.890625 -64.0625 C 88.890625 -62.15625 87.9375 -59.539062 86.03125 -56.21875 L 56.5 -5.5625 C 55.550781 -3.945312 54.03125 -2.492188 51.9375 -1.203125 C 49.84375 0.078125 47.769531 0.71875 45.71875 0.71875 C 43.675781 0.71875 41.726562 0.21875 39.875 -0.78125 C 38.019531 -1.78125 36.710938 -2.804688 35.953125 -3.859375 L 34.671875 -5.421875 L 5 -56.21875 C 3.09375 -59.351562 2.140625 -61.921875 2.140625 -63.921875 C 2.140625 -67.335938 4.613281 -70.519531 9.5625 -73.46875 C 13.175781 -75.5625 16.03125 -76.609375 18.125 -76.609375 C 20.21875 -76.609375 21.859375 -75.96875 23.046875 -74.6875 C 24.234375 -73.40625 25.492188 -71.476562 26.828125 -68.90625 L 45.515625 -32.953125 L 64.203125 -68.90625 C 65.242188 -70.71875 66.023438 -72.023438 66.546875 -72.828125 C 67.078125 -73.640625 67.910156 -74.445312 69.046875 -75.25 C 70.191406 -76.0625 71.710938 -76.46875 73.609375 -76.46875 C 75.515625 -76.46875 78.132812 -75.46875 81.46875 -73.46875 Z M 81.46875 -73.46875 "/></g></g></g><g fill="#ffffff" fill-opacity="1"><g transform="translate(256.10199, 139.217864)"><g><path d="M 39.09375 -0.28125 C 29.488281 -0.28125 21.519531 -3.914062 15.1875 -11.1875 C 8.863281 -18.46875 5.703125 -27.34375 5.703125 -37.8125 L 5.703125 -62.78125 C 5.703125 -65.0625 5.773438 -66.722656 5.921875 -67.765625 C 6.066406 -68.816406 6.472656 -70.054688 7.140625 -71.484375 C 8.460938 -74.046875 12.171875 -75.328125 18.265625 -75.328125 C 24.921875 -75.328125 28.820312 -73.519531 29.96875 -69.90625 C 30.53125 -68.382812 30.8125 -65.960938 30.8125 -62.640625 L 30.8125 -37.671875 C 30.8125 -33.765625 31.925781 -30.71875 34.15625 -28.53125 C 36.394531 -26.34375 39.394531 -25.25 43.15625 -25.25 C 46.914062 -25.25 49.957031 -26.390625 52.28125 -28.671875 C 54.613281 -30.953125 55.78125 -33.953125 55.78125 -37.671875 L 55.78125 -62.921875 C 55.78125 -65.109375 55.851562 -66.75 56 -67.84375 C 56.144531 -68.9375 56.597656 -70.195312 57.359375 -71.625 C 58.585938 -74.09375 62.25 -75.328125 68.34375 -75.328125 C 74.332031 -75.328125 77.992188 -74.046875 79.328125 -71.484375 C 79.992188 -70.054688 80.394531 -68.796875 80.53125 -67.703125 C 80.675781 -66.609375 80.75 -64.96875 80.75 -62.78125 L 80.75 -12.265625 C 80.75 -10.171875 80.675781 -8.578125 80.53125 -7.484375 C 80.394531 -6.390625 79.945312 -5.179688 79.1875 -3.859375 C 77.757812 -1.378906 74.097656 -0.140625 68.203125 -0.140625 C 62.398438 -0.140625 58.832031 -1.28125 57.5 -3.5625 C 56.539062 -5.1875 56.0625 -7.140625 56.0625 -9.421875 C 55.6875 -8.753906 54.832031 -7.800781 53.5 -6.5625 C 52.164062 -5.320312 50.882812 -4.273438 49.65625 -3.421875 C 46.414062 -1.328125 42.894531 -0.28125 39.09375 -0.28125 Z M 39.09375 -0.28125 "/></g></g></g></g></g><g clip-path="url(#604874b70a)"><g clip-path="url(#e656226f9a)"><g transform="matrix(1, 0, 0, 1, 24, 152)"><g clip-path="url(#1a519f0002)"><g clip-path="url(#818ccb9893)"><g clip-path="url(#96b28e1d0a)"><path fill="#ffffff" d="M 0.492188 0.0195312 L 70.550781 0.0195312 L 70.550781 41.0625 L 0.492188 41.0625 Z M 0.492188 0.0195312 " fill-opacity="1" fill-rule="nonzero"/></g></g></g></g></g></g><g transform="matrix(1, 0, 0, 1, 31, 150)"><g clip-path="url(#14c59a9647)"><g clip-path="url(#bccef6e842)"><g clip-path="url(#e77ac9e2f8)"><g clip-path="url(#e0a7b417d8)"><g transform="matrix(1, 0, 0, 1, 2, 15)"><g clip-path="url(#c8cbedab62)"><g clip-path="url(#0faac26cd2)"><g clip-path="url(#6caacfd460)"><g clip-path="url(#a421982cd3)"><path fill="#4b53fa" d="M -1.089844 7.960938 L 8.046875 -1.175781 L 25.109375 15.882812 L 15.972656 25.019531 Z M -1.089844 7.960938 " fill-opacity="1" fill-rule="nonzero"/></g></g></g></g></g></g></g></g><g clip-path="url(#507a5a2697)"><g clip-path="url(#454535938c)"><g clip-path="url(#f971501504)"><g transform="matrix(1, 0, 0, 1, 13, 1)"><g clip-path="url(#543b9e90a4)"><g clip-path="url(#833592651a)"><g clip-path="url(#d330c78925)"><g clip-path="url(#9347eb9d7e)"><path fill="#0500e2" d="M 34.234375 -0.648438 L 43.097656 8.757812 L 7.753906 42.058594 L -1.109375 32.652344 Z M 34.234375 -0.648438 " fill-opacity="1" fill-rule="nonzero"/></g></g></g></g></g></g></g></g></g></g></svg><svg xmlns="http://www.w3.org/2000/svg" xmlns:xlink="http://www.w3.org/1999/xlink" width="500" zoomAndPan="magnify" viewBox="0 0 375 374.999991" height="500" preserveAspectRatio="xMidYMid meet" version="1.0"><defs><g/><clipPath id="ef4459ea8c"><path d="M 0.0390625 0 L 306.519531 0 L 306.519531 375 L 0.0390625 375 Z M 0.0390625 0 " clip-rule="nonzero"/></clipPath><clipPath id="1ea6692e83"><rect x="0" width="307" y="0" height="375"/></clipPath><clipPath id="399b72244b"><path d="M 34.152344 70.574219 L 270.972656 70.574219 L 270.972656 209.308594 L 34.152344 209.308594 Z M 34.152344 70.574219 " clip-rule="nonzero"/></clipPath><clipPath id="4766f5533f"><path d="M 40.902344 70.574219 L 264.097656 70.574219 C 265.886719 70.574219 267.605469 71.289062 268.871094 72.554688 C 270.136719 73.820312 270.847656 75.535156 270.847656 77.324219 L 270.847656 202.558594 C 270.847656 204.347656 270.136719 206.066406 268.871094 207.332031 C 267.605469 208.597656 265.886719 209.308594 264.097656 209.308594 L 40.902344 209.308594 C 39.113281 209.308594 37.394531 208.597656 36.128906 207.332031 C 34.863281 206.066406 34.152344 204.347656 34.152344 202.558594 L 34.152344 77.324219 C 34.152344 75.535156 34.863281 73.820312 36.128906 72.554688 C 37.394531 71.289062 39.113281 70.574219 40.902344 70.574219 Z M 40.902344 70.574219 " clip-rule="nonzero"/></clipPath><clipPath id="0fb38ae650"><path d="M 0.152344 0.574219 L 236.972656 0.574219 L 236.972656 139.308594 L 0.152344 139.308594 Z M 0.152344 0.574219 " clip-rule="nonzero"/></clipPath><clipPath id="5f3dba927c"><path d="M 6.902344 0.574219 L 230.097656 0.574219 C 231.886719 0.574219 233.605469 1.289062 234.871094 2.554688 C 236.136719 3.820312 236.847656 5.535156 236.847656 7.324219 L 236.847656 132.558594 C 236.847656 134.347656 236.136719 136.066406 234.871094 137.332031 C 233.605469 138.597656 231.886719 139.308594 230.097656 139.308594 L 6.902344 139.308594 C 5.113281 139.308594 3.394531 138.597656 2.128906 137.332031 C 0.863281 136.066406 0.152344 134.347656 0.152344 132.558594 L 0.152344 7.324219 C 0.152344 5.535156 0.863281 3.820312 2.128906 2.554688 C 3.394531 1.289062 5.113281 0.574219 6.902344 0.574219 Z M 6.902344 0.574219 " clip-rule="nonzero"/></clipPath><clipPath id="b0da829c90"><rect x="0" width="237" y="0" height="140"/></clipPath><clipPath id="f14b66a205"><path d="M 60 111 L 147 111 L 147 198 L 60 198 Z M 60 111 " clip-rule="nonzero"/></clipPath><clipPath id="5173d85eaf"><path d="M 59.226562 141.359375 L 90.113281 110.472656 L 147.785156 168.144531 L 116.898438 199.03125 Z M 59.226562 141.359375 " clip-rule="nonzero"/></clipPath><clipPath id="310f8e7aaa"><path d="M 61.347656 139.238281 L 87.992188 112.59375 C 88.554688 112.03125 89.316406 111.714844 90.113281 111.714844 C 90.910156 111.714844 91.671875 112.03125 92.234375 112.59375 L 145.644531 166.003906 C 146.207031 166.566406 146.523438 167.328125 146.523438 168.125 C 146.523438 168.921875 146.207031 169.683594 145.644531 170.246094 L 119 196.890625 C 118.4375 197.453125 117.675781 197.769531 116.878906 197.769531 C 116.082031 197.769531 115.320312 197.453125 114.757812 196.890625 L 61.347656 143.480469 C 60.785156 142.917969 60.46875 142.15625 60.46875 141.359375 C 60.46875 140.5625 60.785156 139.800781 61.347656 139.238281 Z M 61.347656 139.238281 " clip-rule="nonzero"/></clipPath><clipPath id="215694fae0"><path d="M 0.28125 0.601562 L 86.679688 0.601562 L 86.679688 87 L 0.28125 87 Z M 0.28125 0.601562 " clip-rule="nonzero"/></clipPath><clipPath id="0377c1c1e3"><path d="M -0.773438 30.359375 L 30.113281 -0.527344 L 87.785156 57.144531 L 56.898438 88.03125 Z M -0.773438 30.359375 " clip-rule="nonzero"/></clipPath><clipPath id="fa36d6edb8"><path d="M 1.347656 28.238281 L 27.992188 1.59375 C 28.554688 1.03125 29.316406 0.714844 30.113281 0.714844 C 30.910156 0.714844 31.671875 1.03125 32.234375 1.59375 L 85.644531 55.003906 C 86.207031 55.566406 86.523438 56.328125 86.523438 57.125 C 86.523438 57.921875 86.207031 58.683594 85.644531 59.246094 L 59 85.890625 C 58.4375 86.453125 57.675781 86.769531 56.878906 86.769531 C 56.082031 86.769531 55.320312 86.453125 54.757812 85.890625 L 1.347656 32.480469 C 0.785156 31.917969 0.46875 31.15625 0.46875 30.359375 C 0.46875 29.5625 0.785156 28.800781 1.347656 28.238281 Z M 1.347656 28.238281 " clip-rule="nonzero"/></clipPath><clipPath id="f4d46895e3"><rect x="0" width="87" y="0" height="87"/></clipPath><clipPath id="dd7b26f02f"><path d="M 97 66 L 245 66 L 245 209 L 97 209 Z M 97 66 " clip-rule="nonzero"/></clipPath><clipPath id="108b8a8cfe"><path d="M 215.820312 64.9375 L 245.773438 96.730469 L 126.179688 209.410156 L 96.226562 177.617188 Z M 215.820312 64.9375 " clip-rule="nonzero"/></clipPath><clipPath id="9d392f8403"><path d="M 217.878906 67.121094 L 243.71875 94.546875 C 244.261719 95.125 244.554688 95.898438 244.53125 96.695312 C 244.507812 97.488281 244.171875 98.242188 243.589844 98.789062 L 128.46875 207.253906 C 127.890625 207.800781 127.117188 208.09375 126.320312 208.070312 C 125.527344 208.046875 124.773438 207.707031 124.226562 207.128906 L 98.386719 179.703125 C 97.84375 179.125 97.550781 178.351562 97.574219 177.558594 C 97.597656 176.761719 97.933594 176.007812 98.515625 175.464844 L 213.636719 66.996094 C 214.214844 66.449219 214.988281 66.15625 215.78125 66.179688 C 216.578125 66.203125 217.332031 66.542969 217.878906 67.121094 Z M 217.878906 67.121094 " clip-rule="nonzero"/></clipPath><clipPath id="5bb12ae00c"><path d="M 0.480469 0 L 147.601562 0 L 147.601562 142.320312 L 0.480469 142.320312 Z M 0.480469 0 " clip-rule="nonzero"/></clipPath><clipPath id="87c0fe47b3"><path d="M 118.820312 -1.0625 L 148.773438 30.730469 L 29.179688 143.410156 L -0.773438 111.617188 Z M 118.820312 -1.0625 " clip-rule="nonzero"/></clipPath><clipPath id="2b0a6e30eb"><path d="M 120.878906 1.121094 L 146.71875 28.546875 C 147.261719 29.125 147.554688 29.898438 147.53125 30.695312 C 147.507812 31.488281 147.171875 32.242188 146.589844 32.789062 L 31.46875 141.253906 C 30.890625 141.800781 30.117188 142.09375 29.320312 142.070312 C 28.527344 142.046875 27.773438 141.707031 27.226562 141.128906 L 1.386719 113.703125 C 0.84375 113.125 0.550781 112.351562 0.574219 111.558594 C 0.597656 110.761719 0.933594 110.007812 1.515625 109.464844 L 116.636719 0.996094 C 117.214844 0.449219 117.988281 0.15625 118.78125 0.179688 C 119.578125 0.203125 120.332031 0.542969 120.878906 1.121094 Z M 120.878906 1.121094 " clip-rule="nonzero"/></clipPath><clipPath id="62b87ea25b"><rect x="0" width="148" y="0" height="143"/></clipPath><clipPath id="eb1c0b6f30"><rect x="0" width="307" y="0" height="375"/></clipPath></defs><rect x="-37.5" width="450" fill="#ffffff" y="-37.499999" height="449.999989" fill-opacity="1"/><rect x="-37.5" width="450" fill="#ffffff" y="-37.499999" height="449.999989" fill-opacity="1"/><g transform="matrix(1, 0, 0, 1, 35, 0)"><g clip-path="url(#eb1c0b6f30)"><g clip-path="url(#ef4459ea8c)"><g><g clip-path="url(#1ea6692e83)"><g fill="#0500e2" fill-opacity="1"><g transform="translate(0.294762, 365.097145)"><g><path d="M 289.84375 -59.796875 C 294.664062 -48.222656 297.078125 -39.863281 297.078125 -34.71875 C 297.078125 -22.5 287.113281 -12.210938 267.1875 -3.859375 C 256.894531 0.640625 248.613281 2.890625 242.34375 2.890625 C 236.070312 2.890625 230.925781 1.363281 226.90625 -1.6875 C 222.894531 -4.738281 219.921875 -7.875 217.984375 -11.09375 C 214.773438 -17.195312 202.238281 -46.296875 180.375 -98.390625 L 165.421875 -97.421875 L 104.65625 -97.421875 L 104.65625 -42.921875 C 104.65625 -35.523438 104.410156 -29.976562 103.921875 -26.28125 C 103.441406 -22.582031 101.914062 -18.320312 99.34375 -13.5 C 94.84375 -4.820312 82.304688 -0.484375 61.734375 -0.484375 C 39.222656 -0.484375 26.039062 -6.429688 22.1875 -18.328125 C 20.257812 -23.796875 19.296875 -32.15625 19.296875 -43.40625 L 19.296875 -311.078125 C 19.296875 -318.460938 19.535156 -324.003906 20.015625 -327.703125 C 20.492188 -331.398438 22.019531 -335.660156 24.59375 -340.484375 C 29.09375 -349.171875 41.632812 -353.515625 62.21875 -353.515625 L 166.390625 -353.515625 C 194.679688 -353.515625 222.171875 -343.222656 248.859375 -322.640625 C 261.710938 -312.679688 272.320312 -299.179688 280.6875 -282.140625 C 289.050781 -265.097656 293.234375 -246.125 293.234375 -225.21875 C 293.234375 -188.894531 281.175781 -158.992188 257.0625 -135.515625 C 264.132812 -118.472656 275.0625 -93.234375 289.84375 -59.796875 Z M 104.65625 -182.78125 L 166.390625 -182.78125 C 175.710938 -182.78125 185.035156 -186.316406 194.359375 -193.390625 C 203.679688 -200.460938 208.34375 -211.070312 208.34375 -225.21875 C 208.34375 -239.375 203.679688 -250.066406 194.359375 -257.296875 C 185.035156 -264.523438 175.390625 -268.140625 165.421875 -268.140625 L 104.65625 -268.140625 Z M 104.65625 -182.78125 "/></g></g></g></g></g></g><g clip-path="url(#399b72244b)"><g clip-path="url(#4766f5533f)"><g transform="matrix(1, 0, 0, 1, 34, 70)"><g clip-path="url(#b0da829c90)"><g clip-path="url(#0fb38ae650)"><g clip-path="url(#5f3dba927c)"><path fill="#0500e2" d="M 0.152344 0.574219 L 236.972656 0.574219 L 236.972656 139.308594 L 0.152344 139.308594 Z M 0.152344 0.574219 " fill-opacity="1" fill-rule="nonzero"/></g></g></g></g></g></g><g clip-path="url(#f14b66a205)"><g clip-path="url(#5173d85eaf)"><g clip-path="url(#310f8e7aaa)"><g transform="matrix(1, 0, 0, 1, 60, 111)"><g clip-path="url(#f4d46895e3)"><g clip-path="url(#215694fae0)"><g clip-path="url(#0377c1c1e3)"><g clip-path="url(#fa36d6edb8)"><path fill="#4b53fa" d="M -0.773438 30.359375 L 30.113281 -0.527344 L 87.785156 57.144531 L 56.898438 88.03125 Z M -0.773438 30.359375 " fill-opacity="1" fill-rule="nonzero"/></g></g></g></g></g></g></g></g><g clip-path="url(#dd7b26f02f)"><g clip-path="url(#108b8a8cfe)"><g clip-path="url(#9d392f8403)"><g transform="matrix(1, 0, 0, 1, 97, 66)"><g clip-path="url(#62b87ea25b)"><g clip-path="url(#5bb12ae00c)"><g clip-path="url(#87c0fe47b3)"><g clip-path="url(#2b0a6e30eb)"><path fill="#ffffff" d="M 118.820312 -1.0625 L 148.773438 30.730469 L 29.304688 143.292969 L -0.648438 111.5 Z M 118.820312 -1.0625 " fill-opacity="1" fill-rule="nonzero"/></g></g></g></g></g></g></g></g></g></g></svg>