<svg xmlns="http://www.w3.org/2000/svg" xmlns:xlink="http://www.w3.org/1999/xlink" width="500" zoomAndPan="magnify" viewBox="0 0 375 374.999991" height="500" preserveAspectRatio="xMidYMid meet" version="1.0"><defs><g/><clipPath id="b6e783a2cf"><path d="M 0.0390625 0 L 306.519531 0 L 306.519531 375 L 0.0390625 375 Z M 0.0390625 0 " clip-rule="nonzero"/></clipPath><clipPath id="24536d0fc8"><rect x="0" width="307" y="0" height="375"/></clipPath><clipPath id="56031bbe31"><path d="M 34.152344 70.574219 L 270.972656 70.574219 L 270.972656 209.308594 L 34.152344 209.308594 Z M 34.152344 70.574219 " clip-rule="nonzero"/></clipPath><clipPath id="ac4c99d159"><path d="M 40.902344 70.574219 L 264.097656 70.574219 C 265.886719 70.574219 267.605469 71.289062 268.871094 72.554688 C 270.136719 73.820312 270.847656 75.535156 270.847656 77.324219 L 270.847656 202.558594 C 270.847656 204.347656 270.136719 206.066406 268.871094 207.332031 C 267.605469 208.597656 265.886719 209.308594 264.097656 209.308594 L 40.902344 209.308594 C 39.113281 209.308594 37.394531 208.597656 36.128906 207.332031 C 34.863281 206.066406 34.152344 204.347656 34.152344 202.558594 L 34.152344 77.324219 C 34.152344 75.535156 34.863281 73.820312 36.128906 72.554688 C 37.394531 71.289062 39.113281 70.574219 40.902344 70.574219 Z M 40.902344 70.574219 " clip-rule="nonzero"/></clipPath><clipPath id="72b8330b31"><path d="M 0.152344 0.574219 L 236.972656 0.574219 L 236.972656 139.308594 L 0.152344 139.308594 Z M 0.152344 0.574219 " clip-rule="nonzero"/></clipPath><clipPath id="eebdb8626d"><path d="M 6.902344 0.574219 L 230.097656 0.574219 C 231.886719 0.574219 233.605469 1.289062 234.871094 2.554688 C 236.136719 3.820312 236.847656 5.535156 236.847656 7.324219 L 236.847656 132.558594 C 236.847656 134.347656 236.136719 136.066406 234.871094 137.332031 C 233.605469 138.597656 231.886719 139.308594 230.097656 139.308594 L 6.902344 139.308594 C 5.113281 139.308594 3.394531 138.597656 2.128906 137.332031 C 0.863281 136.066406 0.152344 134.347656 0.152344 132.558594 L 0.152344 7.324219 C 0.152344 5.535156 0.863281 3.820312 2.128906 2.554688 C 3.394531 1.289062 5.113281 0.574219 6.902344 0.574219 Z M 6.902344 0.574219 " clip-rule="nonzero"/></clipPath><clipPath id="d434b295bd"><rect x="0" width="237" y="0" height="140"/></clipPath><clipPath id="e2cff242d8"><path d="M 60 111 L 147 111 L 147 198 L 60 198 Z M 60 111 " clip-rule="nonzero"/></clipPath><clipPath id="17ac899e34"><path d="M 59.226562 141.359375 L 90.113281 110.472656 L 147.785156 168.144531 L 116.898438 199.03125 Z M 59.226562 141.359375 " clip-rule="nonzero"/></clipPath><clipPath id="8dd21020cd"><path d="M 61.347656 139.238281 L 87.992188 112.59375 C 88.554688 112.03125 89.316406 111.714844 90.113281 111.714844 C 90.910156 111.714844 91.671875 112.03125 92.234375 112.59375 L 145.644531 166.003906 C 146.207031 166.566406 146.523438 167.328125 146.523438 168.125 C 146.523438 168.921875 146.207031 169.683594 145.644531 170.246094 L 119 196.890625 C 118.4375 197.453125 117.675781 197.769531 116.878906 197.769531 C 116.082031 197.769531 115.320312 197.453125 114.757812 196.890625 L 61.347656 143.480469 C 60.785156 142.917969 60.46875 142.15625 60.46875 141.359375 C 60.46875 140.5625 60.785156 139.800781 61.347656 139.238281 Z M 61.347656 139.238281 " clip-rule="nonzero"/></clipPath><clipPath id="62b55bf4d9"><path d="M 0.28125 0.601562 L 86.679688 0.601562 L 86.679688 87 L 0.28125 87 Z M 0.28125 0.601562 " clip-rule="nonzero"/></clipPath><clipPath id="fccad94435"><path d="M -0.773438 30.359375 L 30.113281 -0.527344 L 87.785156 57.144531 L 56.898438 88.03125 Z M -0.773438 30.359375 " clip-rule="nonzero"/></clipPath><clipPath id="c38867e24b"><path d="M 1.347656 28.238281 L 27.992188 1.59375 C 28.554688 1.03125 29.316406 0.714844 30.113281 0.714844 C 30.910156 0.714844 31.671875 1.03125 32.234375 1.59375 L 85.644531 55.003906 C 86.207031 55.566406 86.523438 56.328125 86.523438 57.125 C 86.523438 57.921875 86.207031 58.683594 85.644531 59.246094 L 59 85.890625 C 58.4375 86.453125 57.675781 86.769531 56.878906 86.769531 C 56.082031 86.769531 55.320312 86.453125 54.757812 85.890625 L 1.347656 32.480469 C 0.785156 31.917969 0.46875 31.15625 0.46875 30.359375 C 0.46875 29.5625 0.785156 28.800781 1.347656 28.238281 Z M 1.347656 28.238281 " clip-rule="nonzero"/></clipPath><clipPath id="cc8f190a7d"><rect x="0" width="87" y="0" height="87"/></clipPath><clipPath id="a74f2c990f"><path d="M 97 66 L 245 66 L 245 209 L 97 209 Z M 97 66 " clip-rule="nonzero"/></clipPath><clipPath id="e32af83def"><path d="M 215.820312 64.9375 L 245.773438 96.730469 L 126.179688 209.410156 L 96.226562 177.617188 Z M 215.820312 64.9375 " clip-rule="nonzero"/></clipPath><clipPath id="93bc90beea"><path d="M 217.878906 67.121094 L 243.71875 94.546875 C 244.261719 95.125 244.554688 95.898438 244.53125 96.695312 C 244.507812 97.488281 244.171875 98.242188 243.589844 98.789062 L 128.46875 207.253906 C 127.890625 207.800781 127.117188 208.09375 126.320312 208.070312 C 125.527344 208.046875 124.773438 207.707031 124.226562 207.128906 L 98.386719 179.703125 C 97.84375 179.125 97.550781 178.351562 97.574219 177.558594 C 97.597656 176.761719 97.933594 176.007812 98.515625 175.464844 L 213.636719 66.996094 C 214.214844 66.449219 214.988281 66.15625 215.78125 66.179688 C 216.578125 66.203125 217.332031 66.542969 217.878906 67.121094 Z M 217.878906 67.121094 " clip-rule="nonzero"/></clipPath><clipPath id="74afeddbe5"><path d="M 0.480469 0 L 147.601562 0 L 147.601562 142.320312 L 0.480469 142.320312 Z M 0.480469 0 " clip-rule="nonzero"/></clipPath><clipPath id="e56fff562a"><path d="M 118.820312 -1.0625 L 148.773438 30.730469 L 29.179688 143.410156 L -0.773438 111.617188 Z M 118.820312 -1.0625 " clip-rule="nonzero"/></clipPath><clipPath id="b8e7aca2d6"><path d="M 120.878906 1.121094 L 146.71875 28.546875 C 147.261719 29.125 147.554688 29.898438 147.53125 30.695312 C 147.507812 31.488281 147.171875 32.242188 146.589844 32.789062 L 31.46875 141.253906 C 30.890625 141.800781 30.117188 142.09375 29.320312 142.070312 C 28.527344 142.046875 27.773438 141.707031 27.226562 141.128906 L 1.386719 113.703125 C 0.84375 113.125 0.550781 112.351562 0.574219 111.558594 C 0.597656 110.761719 0.933594 110.007812 1.515625 109.464844 L 116.636719 0.996094 C 117.214844 0.449219 117.988281 0.15625 118.78125 0.179688 C 119.578125 0.203125 120.332031 0.542969 120.878906 1.121094 Z M 120.878906 1.121094 " clip-rule="nonzero"/></clipPath><clipPath id="e0b8100049"><rect x="0" width="148" y="0" height="143"/></clipPath><clipPath id="458810ceb1"><rect x="0" width="307" y="0" height="375"/></clipPath></defs><g transform="matrix(1, 0, 0, 1, 35, 0)"><g clip-path="url(#458810ceb1)"><g clip-path="url(#b6e783a2cf)"><g><g clip-path="url(#24536d0fc8)"><g fill="#0500e2" fill-opacity="1"><g transform="translate(0.294762, 365.097145)"><g><path d="M 289.84375 -59.796875 C 294.664062 -48.222656 297.078125 -39.863281 297.078125 -34.71875 C 297.078125 -22.5 287.113281 -12.210938 267.1875 -3.859375 C 256.894531 0.640625 248.613281 2.890625 242.34375 2.890625 C 236.070312 2.890625 230.925781 1.363281 226.90625 -1.6875 C 222.894531 -4.738281 219.921875 -7.875 217.984375 -11.09375 C 214.773438 -17.195312 202.238281 -46.296875 180.375 -98.390625 L 165.421875 -97.421875 L 104.65625 -97.421875 L 104.65625 -42.921875 C 104.65625 -35.523438 104.410156 -29.976562 103.921875 -26.28125 C 103.441406 -22.582031 101.914062 -18.320312 99.34375 -13.5 C 94.84375 -4.820312 82.304688 -0.484375 61.734375 -0.484375 C 39.222656 -0.484375 26.039062 -6.429688 22.1875 -18.328125 C 20.257812 -23.796875 19.296875 -32.15625 19.296875 -43.40625 L 19.296875 -311.078125 C 19.296875 -318.460938 19.535156 -324.003906 20.015625 -327.703125 C 20.492188 -331.398438 22.019531 -335.660156 24.59375 -340.484375 C 29.09375 -349.171875 41.632812 -353.515625 62.21875 -353.515625 L 166.390625 -353.515625 C 194.679688 -353.515625 222.171875 -343.222656 248.859375 -322.640625 C 261.710938 -312.679688 272.320312 -299.179688 280.6875 -282.140625 C 289.050781 -265.097656 293.234375 -246.125 293.234375 -225.21875 C 293.234375 -188.894531 281.175781 -158.992188 257.0625 -135.515625 C 264.132812 -118.472656 275.0625 -93.234375 289.84375 -59.796875 Z M 104.65625 -182.78125 L 166.390625 -182.78125 C 175.710938 -182.78125 185.035156 -186.316406 194.359375 -193.390625 C 203.679688 -200.460938 208.34375 -211.070312 208.34375 -225.21875 C 208.34375 -239.375 203.679688 -250.066406 194.359375 -257.296875 C 185.035156 -264.523438 175.390625 -268.140625 165.421875 -268.140625 L 104.65625 -268.140625 Z M 104.65625 -182.78125 "/></g></g></g></g></g></g><g clip-path="url(#56031bbe31)"><g clip-path="url(#ac4c99d159)"><g transform="matrix(1, 0, 0, 1, 34, 70)"><g clip-path="url(#d434b295bd)"><g clip-path="url(#72b8330b31)"><g clip-path="url(#eebdb8626d)"><path fill="#0500e2" d="M 0.152344 0.574219 L 236.972656 0.574219 L 236.972656 139.308594 L 0.152344 139.308594 Z M 0.152344 0.574219 " fill-opacity="1" fill-rule="nonzero"/></g></g></g></g></g></g><g clip-path="url(#e2cff242d8)"><g clip-path="url(#17ac899e34)"><g clip-path="url(#8dd21020cd)"><g transform="matrix(1, 0, 0, 1, 60, 111)"><g clip-path="url(#cc8f190a7d)"><g clip-path="url(#62b55bf4d9)"><g clip-path="url(#fccad94435)"><g clip-path="url(#c38867e24b)"><path fill="#4b53fa" d="M -0.773438 30.359375 L 30.113281 -0.527344 L 87.785156 57.144531 L 56.898438 88.03125 Z M -0.773438 30.359375 " fill-opacity="1" fill-rule="nonzero"/></g></g></g></g></g></g></g></g><g clip-path="url(#a74f2c990f)"><g clip-path="url(#e32af83def)"><g clip-path="url(#93bc90beea)"><g transform="matrix(1, 0, 0, 1, 97, 66)"><g clip-path="url(#e0b8100049)"><g clip-path="url(#74afeddbe5)"><g clip-path="url(#e56fff562a)"><g clip-path="url(#b8e7aca2d6)"><path fill="#ffffff" d="M 118.820312 -1.0625 L 148.773438 30.730469 L 29.304688 143.292969 L -0.648438 111.5 Z M 118.820312 -1.0625 " fill-opacity="1" fill-rule="nonzero"/></g></g></g></g></g></g></g></g></g></g></svg>